#!OML:ASF F:\VICON\USERDATA\INSTALL\rory3\rory3.ASF
:FULLY-SPECIFIED
:DEGREES
297
root 0.101169 17.1217 17.6599 -157.457 -37.3071 -180.112
lowerback -14.2746 0.162148 3.59237
upperback -5.17981 -0.870372 2.31703
thorax 2.52861 -0.662529 0.24487
lowerneck -10.5235 1.41987 -2.07658
upperneck 43.7077 -3.14494 1.10246
head 18.1623 -3.05009 -0.172309
rclavicle 3.27001e-014 4.77083e-015
rhumerus -42.5996 -3.32606 -75.5493
rradius 14.4685
rwrist -0.117253
rhand 0.0691424 13.7982
rfingers 7.12502
rthumb 25.6566 -14.493
lclavicle 3.27001e-014 4.77083e-015
lhumerus -51.9887 15.3926 71.4425
lradius 34.3363
lwrist -3.11315
lhand 2.33928 18.0731
lfingers 7.12502
lthumb 27.829 46.0322
rfemur -32.1666 2.26161 31.9474
rtibia 25.8867
rfoot -44.7339 -32.5587
rtoes 43.1539
lfemur -8.68333 13.0553 -24.614
ltibia 34.0644
lfoot 19.6711 25.3095
ltoes 16.7233
298
root 0.103706 17.1222 17.6638 -157.477 -37.2793 -180.133
lowerback -14.162 0.131822 3.56643
upperback -5.15622 -0.897379 2.33387
thorax 2.49296 -0.673815 0.273646
lowerneck -10.6515 1.47432 -2.39572
upperneck 43.7706 -3.09008 1.38327
head 18.2463 -3.0441 0.0238214
rclavicle 3.35946e-014 7.95139e-015
rhumerus -42.6138 -2.92206 -75.8058
rradius 14.6262
rwrist -0.509898
rhand 0.0198215 13.7725
rfingers 7.12502
rthumb 25.6094 -14.5256
lclavicle 3.35946e-014 7.95139e-015
lhumerus -51.9282 15.5065 71.4492
lradius 34.5418
lwrist -3.09473
lhand 2.26028 17.8317
lfingers 7.12502
lthumb 27.7535 45.8031
rfemur -32.1663 2.17221 31.944
rtibia 25.8901
rfoot -44.5339 -32.5904
rtoes 42.977
lfemur -8.65328 13.1213 -24.6646
ltibia 34.0383
lfoot 19.4569 25.5743
ltoes 17.3198
299
root 0.108147 17.1219 17.6662 -157.426 -37.257 -180.34
lowerback -14.0684 0.114602 3.37349
upperback -5.11498 -0.877007 2.26173
thorax 2.48793 -0.657799 0.31064
lowerneck -10.7068 1.50315 -2.44905
upperneck 43.8561 -3.1008 1.50376
head 18.3191 -3.04438 0.0850645
rclavicle -7.09661e-014 -5.08889e-014
rhumerus -42.6423 -3.1197 -75.7301
rradius 14.6943
rwrist -0.402297
rhand 0.13867 13.7463
rfingers 7.12502
rthumb 25.7232 -14.5353
lclavicle -7.09661e-014 -5.08889e-014
lhumerus -51.8555 15.3793 71.4469
lradius 34.7838
lwrist -3.08242
lhand 2.30746 17.353
lfingers 7.12502
lthumb 27.7986 45.317
rfemur -32.1321 2.21316 31.7351
rtibia 25.9031
rfoot -44.5638 -32.6405
rtoes 42.9577
lfemur -8.58198 13.1639 -24.8471
ltibia 34.0332
lfoot 19.3994 25.6405
ltoes 17.5867
300
root 0.111616 17.1225 17.6645 -157.477 -37.276 -180.371
lowerback -14.0242 0.114162 3.30207
upperback -5.05658 -0.859227 2.25136
thorax 2.52655 -0.644036 0.342822
lowerneck -10.8232 1.5277 -2.48514
upperneck 43.9593 -3.12092 1.62479
head 18.4205 -3.04381 0.140999
rclavicle 3.22031e-014 4.21423e-014
rhumerus -42.6109 -3.09869 -75.7444
rradius 14.709
rwrist -0.377382
rhand 0.19168 13.8106
rfingers 7.12502
rthumb 25.774 -14.4637
lclavicle 3.22031e-014 4.21423e-014
lhumerus -51.7816 15.1274 71.5767
lradius 35.1822
lwrist -2.79712
lhand 2.3459 17.2786
lfingers 7.12502
lthumb 27.8353 45.2367
rfemur -32.0612 2.23145 31.7304
rtibia 25.9161
rfoot -44.5032 -32.8433
rtoes 42.7197
lfemur -8.55214 13.2824 -24.8448
ltibia 34.1109
lfoot 19.416 25.6113
ltoes 17.5354
301
root 0.117924 17.1227 17.6656 -157.56 -37.181 -180.355
lowerback -13.9417 0.165229 3.21263
upperback -5.02548 -0.770698 2.23873
thorax 2.5172 -0.597043 0.394446
lowerneck -10.8291 1.53876 -2.29261
upperneck 44.0579 -3.12865 1.48175
head 18.4782 -3.03869 0.0331009
rclavicle 5.26779e-015 3.26007e-014
rhumerus -42.6145 -3.07682 -75.7583
rradius 14.6903
rwrist -0.279668
rhand 0.172174 13.8235
rfingers 7.12502
rthumb 25.7553 -14.4534
lclavicle 5.26779e-015 3.26007e-014
lhumerus -51.6848 14.8861 71.6955
lradius 35.544
lwrist -2.51999
lhand 2.53092 17.327
lfingers 7.12502
lthumb 28.0122 45.2563
rfemur -31.9925 2.51122 31.6768
rtibia 25.9354
rfoot -44.7482 -32.8495
rtoes 43.0174
lfemur -8.51946 13.4461 -24.8547
ltibia 34.1748
lfoot 19.193 25.8311
ltoes 17.9298
302
root 0.130977 17.1257 17.6718 -157.259 -37.334 -180.491
lowerback -14.052 0.16296 3.04271
upperback -5.12004 -0.759368 2.18344
thorax 2.47902 -0.595407 0.433808
lowerneck -10.6711 1.52359 -1.95088
upperneck 44.0268 -3.1547 1.24534
head 18.4048 -3.024 -0.14249
rclavicle 7.45443e-014 -7.95139e-015
rhumerus -42.7321 -3.37406 -75.6413
rradius 14.7426
rwrist -0.096385
rhand 0.117721 13.8872
rfingers 7.12502
rthumb 25.7031 -14.3973
lclavicle 7.45443e-014 -7.95139e-015
lhumerus -51.5344 14.749 71.6853
lradius 35.8163
lwrist -2.52141
lhand 2.68148 17.2796
lfingers 7.12502
lthumb 28.1561 45.1854
rfemur -32.2814 2.78732 31.5126
rtibia 25.9084
rfoot -45.1468 -32.986
rtoes 43.39
lfemur -8.90708 13.2231 -24.9858
ltibia 34.3174
lfoot 18.6523 26.4089
ltoes 19.3211
303
root 0.128086 17.1205 17.6635 -157.523 -37.2103 -180.364
lowerback -13.9612 0.252391 3.13509
upperback -5.03889 -0.640543 2.14596
thorax 2.51529 -0.531897 0.361653
lowerneck -10.6037 1.49337 -1.97167
upperneck 43.9678 -3.20683 1.30078
head 18.3528 -3.03834 -0.118134
rclavicle -1.2921e-015 -1.51076e-014
rhumerus -42.7594 -3.44998 -75.6681
rradius 14.6898
rwrist -0.177908
rhand -0.290514 14.0589
rfingers 7.12502
rthumb 25.3121 -14.2815
lclavicle -1.2921e-015 -1.51076e-014
lhumerus -51.4248 14.5484 71.7523
lradius 36.1432
lwrist -2.41341
lhand 2.30576 17.3426
lfingers 7.12502
lthumb 27.797 45.307
rfemur -31.9837 2.65261 31.688
rtibia 25.8461
rfoot -44.8485 -32.9035
rtoes 43.2157
lfemur -8.65084 13.5062 -24.8244
ltibia 34.4133
lfoot 17.9847 26.7146
ltoes 20.4114
304
root 0.131628 17.1233 17.6628 -157.452 -37.5529 -180.281
lowerback -14.0037 0.218849 3.29669
upperback -5.13086 -0.713937 2.12613
thorax 2.43842 -0.575281 0.238647
lowerneck -10.4712 1.46478 -1.95638
upperneck 43.9133 -3.27285 1.34022
head 18.2855 -3.05866 -0.110404
rclavicle 1.27222e-014 1.82882e-014
rhumerus -42.8009 -3.42387 -75.7397
rradius 14.7167
rwrist -0.568617
rhand -0.76727 14.0477
rfingers 7.12502
rthumb 24.8553 -14.3566
lclavicle 1.27222e-014 1.82882e-014
lhumerus -51.4218 13.9949 71.9799
lradius 36.6965
lwrist -2.07054
lhand 1.9928 17.7073
lfingers 7.12502
lthumb 27.4977 45.7196
rfemur -32.0742 2.62821 31.8066
rtibia 25.7505
rfoot -45.0864 -32.9859
rtoes 43.3435
lfemur -8.88306 13.2702 -24.6545
ltibia 34.5781
lfoot 17.7006 26.9297
ltoes 20.7831
305
root 0.133065 17.1211 17.655 -157.742 -37.445 -180.087
lowerback -13.9389 0.281467 3.33945
upperback -5.03428 -0.629457 2.16358
thorax 2.50631 -0.527845 0.266948
lowerneck -10.3931 1.44663 -1.90702
upperneck 43.8409 -3.26809 1.27385
head 18.2162 -3.05352 -0.145405
rclavicle -7.7526e-014 -5.56597e-015
rhumerus -42.7524 -3.54653 -75.61
rradius 14.8251
rwrist -0.68551
rhand -1.07252 14.0707
rfingers 7.12502
rthumb 24.5627 -14.3737
lclavicle -7.7526e-014 -5.56597e-015
lhumerus -51.3302 13.493 72.3676
lradius 37.3487
lwrist -1.70498
lhand 1.84698 18.3353
lfingers 7.12502
lthumb 27.3582 46.3697
rfemur -31.7797 2.832 31.9339
rtibia 25.6372
rfoot -45.1032 -33.0612
rtoes 43.5068
lfemur -8.71074 13.5613 -24.4408
ltibia 34.6817
lfoot 17.5705 26.8346
ltoes 20.5206
306
root 0.139749 17.1224 17.6572 -157.758 -37.6196 -179.961
lowerback -14.1075 0.258434 3.32291
upperback -4.94722 -0.672148 2.2815
thorax 2.6892 -0.544501 0.391233
lowerneck -10.4446 1.42128 -1.93751
upperneck 43.8182 -3.24317 1.19698
head 18.2134 -3.05087 -0.169866
rclavicle -3.97569e-016 6.36111e-015
rhumerus -42.5468 -3.60938 -75.4445
rradius 14.7286
rwrist -0.652833
rhand -1.1964 14.1602
rfingers 7.12502
rthumb 24.444 -14.3002
lclavicle -3.97569e-016 6.36111e-015
lhumerus -51.0322 13.4619 72.5873
lradius 37.6447
lwrist -1.67829
lhand 1.75043 18.2573
lfingers 7.12502
lthumb 27.2659 46.3063
rfemur -31.816 2.70689 32.1196
rtibia 25.5292
rfoot -44.9595 -33.1251
rtoes 43.587
lfemur -8.89991 13.4474 -24.3005
ltibia 34.8278
lfoot 17.3686 26.9811
ltoes 20.6389
307
root 0.139804 17.1234 17.6579 -157.793 -37.7572 -179.922
lowerback -13.9878 0.338433 3.53774
upperback -5.0268 -0.580198 2.10715
thorax 2.53868 -0.504031 0.103935
lowerneck -10.4057 1.4053 -1.77684
upperneck 43.9632 -3.45195 1.36635
head 18.3031 -3.09795 -0.162306
rclavicle 1.68967e-014 3.57812e-014
rhumerus -42.7041 -4.10261 -75.3973
rradius 14.5507
rwrist -0.473355
rhand -1.2199 14.3573
rfingers 7.12502
rthumb 24.4214 -14.1062
lclavicle 1.68967e-014 3.57812e-014
lhumerus -50.936 13.0124 72.4531
lradius 37.9397
lwrist -1.72568
lhand 1.98679 17.7741
lfingers 7.12502
lthumb 27.492 45.7873
rfemur -31.7985 2.50029 32.225
rtibia 25.5018
rfoot -44.9597 -32.9823
rtoes 43.5234
lfemur -8.90649 13.46 -24.2111
ltibia 34.8768
lfoot 17.3104 26.9868
ltoes 20.9144
